<?xml version="1.0"?><svg width="470.459" height="547.583" xmlns="http://www.w3.org/2000/svg">
 <title>Circle of hands</title>

 <g>
  <title>Layer 1</title>
  <g id="svg_1" transform="rotate(-72.1095, 280.826, 125.656) matrix(-0.296256, 0, 0, 0.260862, 150.628, 6.17074)">
   <path fill="#ff007f" id="path69" d="m-387.143127,483.282623c33.332001,-87.5 -209.828064,-99.630035 -218.751038,31.249969c-6.25,91.666992 -37.499023,137.500061 27.083984,189.584045c62.975098,50.787048 189.583069,31.248047 202.083069,-52.083984c12.5,-83.334045 -14.582001,-62.499084 -25,-93.749084c-10.416016,-31.250977 14.583984,-75.000946 14.583984,-75.000946z"/>
   <path fill="#ff007f" id="path71" d="m-239.944107,525.923584c68.444016,-26.488983 29.778,-85.730957 -42.280014,-48.951935c-51.298004,26.182983 -68.175018,57.36795 -76.269989,71.496918c-30.690002,53.564026 31.260986,101.931091 46.273987,54.19104c16.976013,-53.976013 72.276016,-76.736023 72.276016,-76.736023z"/>
   <path fill="#ff007f" id="path73" d="m-320.478119,293.700623c30.15799,-55.097992 -21.927002,-82.182007 -52.084015,-27.084015c-30.15799,55.097992 -32.824982,45.942017 -48.221985,98.25c-15.397003,52.308014 24.298981,60.091003 47.65799,15.688019c23.359009,-44.402985 52.64801,-86.854004 52.64801,-86.854004z"/>
   <path fill="#ff007f" id="path75" d="m-436.469147,237.300629c18.073029,-60.266022 -52.678986,-81.578003 -60.412933,2.178986c-6.930054,75.054993 -5.619019,41.855011 -0.973999,104.495026c4.459961,60.143982 58.626953,85.143982 53.884949,-5.89502c-4.276001,-82.095001 7.501984,-100.778992 7.501984,-100.778992z"/>
   <path fill="#ff007f" id="path77" d="m-553.812134,258.28363c-11.110962,-65.15802 -69.447998,-38.688019 -51.916016,16.202972c17.531982,54.891022 12.151978,55.39502 41.098999,107.141022c25.400024,45.405975 71.233032,39.155975 43.763062,-24.889984c-24.319092,-56.700012 -32.946045,-98.45401 -32.946045,-98.45401z"/>
   <path fill="#ff007f" id="path79" d="m-628.812134,320.784607c-18.75,-43.75 -62.5,-20.832977 -39.291992,30.425995c19.613037,43.320007 30.085938,44.940002 54.561035,70.625c34.730957,36.449036 59.730957,3.116028 30.986938,-29.738983c-37.442017,-42.79599 -46.255981,-71.312012 -46.255981,-71.312012z"/>
  </g>
  <g id="svg_2" transform="matrix(-0.296256, 0, 0, 0.260862, 150.628, 6.17074)">
   <path id="svg_3" fill="#0000ff" d="m-764.238464,775.623962c33.33197,-87.5 -209.828003,-99.630005 -218.751038,31.25c-6.25,91.666992 -37.499023,137.5 27.084045,189.583984c62.974976,50.78717 189.583008,31.248108 202.083008,-52.083984c12.5,-83.333984 -14.582031,-62.499023 -25,-93.749023c-10.416016,-31.250977 14.583984,-75.000977 14.583984,-75.000977z"/>
   <path id="svg_4" fill="#0000ff" d="m-617.03949,818.264954c68.444031,-26.489014 29.778015,-85.730957 -42.279968,-48.951965c-51.298035,26.182983 -68.175049,57.367981 -76.27002,71.496948c-30.690002,53.564026 31.260986,101.93103 46.273987,54.19104c16.976013,-53.976013 72.276001,-76.736023 72.276001,-76.736023z"/>
   <path id="svg_5" fill="#0000ff" d="m-697.573486,586.041931c30.15802,-55.097961 -21.927002,-82.181976 -52.083984,-27.083984c-30.15802,55.098022 -32.825012,45.942017 -48.221985,98.25c-15.397034,52.307983 24.29895,60.091003 47.657959,15.687988c23.359009,-44.402954 52.64801,-86.854004 52.64801,-86.854004z"/>
   <path id="svg_6" fill="#0000ff" d="m-813.564453,529.641968c18.072998,-60.265991 -52.679016,-81.578003 -60.413025,2.179016c-6.929993,75.054993 -5.619019,41.85498 -0.973999,104.494995c4.460022,60.143982 58.627014,85.143982 53.88501,-5.89502c-4.276001,-82.094971 7.502014,-100.778992 7.502014,-100.778992z"/>
   <path id="svg_7" fill="#0000ff" d="m-930.907471,550.624939c-11.111023,-65.15799 -69.447998,-38.687988 -51.916016,16.203003c17.531982,54.890991 12.151978,55.39502 41.098999,107.140991c25.400024,45.406006 71.233032,39.156006 43.763,-24.889954c-24.31897,-56.700012 -32.945984,-98.454041 -32.945984,-98.454041z"/>
   <path id="svg_8" fill="#0000ff" d="m-1005.907471,613.125977c-18.75,-43.75 -62.5,-20.833008 -39.291992,30.425964c19.612915,43.320007 30.085938,44.940002 54.560974,70.625c34.731018,36.449036 59.731018,3.116028 30.987,-29.739014c-37.442017,-42.795959 -46.255981,-71.311951 -46.255981,-71.311951z"/>
  </g>
  <g id="svg_9" transform="rotate(15.2843, 384.542, 349.917) matrix(-0.296256, 0, 0, 0.260862, 150.628, 6.17074)">
   <path id="svg_10" fill="#ff0000" d="m-737.234863,1342.973755c33.332031,-87.5 -209.827881,-99.630005 -218.750977,31.25c-6.25,91.666992 -37.498901,137.5 27.084106,189.583984c62.974915,50.786987 189.582886,31.248047 202.082886,-52.083984c12.5,-83.333984 -14.581909,-62.499023 -25,-93.749023c-10.416016,-31.250977 14.583984,-75.000977 14.583984,-75.000977z"/>
   <path id="svg_11" fill="#ff0000" d="m-590.035767,1385.614746c68.44397,-26.489014 29.777954,-85.730957 -42.280029,-48.951904c-51.297974,26.182983 -68.175049,57.36792 -76.27002,71.496948c-30.689941,53.563965 31.260986,101.93103 46.274048,54.19104c16.975952,-53.976074 72.276001,-76.736084 72.276001,-76.736084z"/>
   <path id="svg_12" fill="#ff0000" d="m-670.569824,1153.391724c30.157959,-55.098022 -21.927002,-82.182007 -52.083984,-27.083984c-30.157959,55.098022 -32.824951,45.942017 -48.221985,98.25c-15.397034,52.307983 24.299011,60.091064 47.65802,15.687988c23.359009,-44.402954 52.647949,-86.854004 52.647949,-86.854004z"/>
   <path id="svg_13" fill="#ff0000" d="m-786.560791,1096.991821c18.072998,-60.266113 -52.679016,-81.578125 -60.413025,2.178955c-6.929932,75.054932 -5.619019,41.85498 -0.973999,104.494995c4.460083,60.144043 58.627014,85.144043 53.88501,-5.89502c-4.276001,-82.094971 7.502014,-100.778931 7.502014,-100.778931z"/>
   <path id="svg_14" fill="#ff0000" d="m-903.903809,1117.974731c-11.110962,-65.157959 -69.447998,-38.687988 -51.916016,16.203003c17.531982,54.890991 12.151978,55.39502 41.098999,107.140991c25.400085,45.406006 71.233093,39.156006 43.763,-24.889893c-24.31897,-56.700073 -32.945984,-98.454102 -32.945984,-98.454102z"/>
   <path id="svg_15" fill="#ff0000" d="m-978.903809,1180.475708c-18.75,-43.75 -62.5,-20.832886 -39.291992,30.426025c19.613037,43.320068 30.08606,44.940063 54.561035,70.625c34.730957,36.449097 59.730957,3.116089 30.986938,-29.739014c-37.442017,-42.795898 -46.255981,-71.312012 -46.255981,-71.312012z"/>
  </g>
  <g id="svg_16" transform="rotate(-113.805, 141.542, 152.917) matrix(-0.296256, 0, 0, 0.260862, 150.628, 6.17074)">
   <path id="svg_17" fill="#00ff00" d="m83.001724,587.785156c33.332001,-87.5 -209.827988,-99.630005 -218.751022,31.25c-6.25,91.666992 -37.498962,137.5 27.08403,189.583984c62.974979,50.787109 189.583008,31.248047 202.083008,-52.083984c12.5,-83.333984 -14.582001,-62.499023 -25,-93.749023c-10.416023,-31.250977 14.583984,-75.000977 14.583984,-75.000977z"/>
   <path id="svg_18" fill="#00ff00" d="m230.200745,630.426147c68.44397,-26.489014 29.777954,-85.730957 -42.280029,-48.951904c-51.298004,26.182983 -68.175003,57.36792 -76.269974,71.496948c-30.690002,53.563965 31.260971,101.93103 46.273972,54.19104c16.976044,-53.976074 72.276031,-76.736084 72.276031,-76.736084z"/>
   <path id="svg_19" fill="#00ff00" d="m149.666718,398.203247c30.15799,-55.098022 -21.927002,-82.182007 -52.084,-27.083984c-30.15799,55.0979 -32.824989,45.941895 -48.221977,98.249878c-15.397034,52.308105 24.298973,60.091064 47.657982,15.68811c23.359009,-44.403076 52.647995,-86.854004 52.647995,-86.854004z"/>
   <path id="svg_20" fill="#00ff00" d="m33.675713,341.803223c18.073029,-60.265991 -52.678989,-81.578003 -60.412998,2.178955c-6.929993,75.055054 -5.619019,41.85498 -0.973999,104.494995c4.460022,60.144043 58.62702,85.144043 53.885015,-5.89502c-4.276001,-82.094971 7.501982,-100.778931 7.501982,-100.778931z"/>
   <path id="svg_21" fill="#00ff00" d="m-83.667282,362.786255c-11.111023,-65.158081 -69.447983,-38.688049 -51.916,16.203003c17.531982,54.890991 12.151978,55.394897 41.098984,107.140991c25.400024,45.405884 71.233036,39.155884 43.763004,-24.890015c-24.318974,-56.700073 -32.945988,-98.453979 -32.945988,-98.453979z"/>
   <path id="svg_22" fill="#00ff00" d="m-158.667267,425.287231c-18.75,-43.75 -62.500015,-20.833008 -39.292007,30.425903c19.612991,43.320068 30.086014,44.940063 54.560989,70.625c34.731003,36.449097 59.731003,3.116089 30.986984,-29.738892c-37.442001,-42.796021 -46.255966,-71.312012 -46.255966,-71.312012z"/>
  </g>
  <g id="svg_23" transform="rotate(130.718, 144.542, 412.917) matrix(-0.296256, 0, 0, 0.260862, 150.628, 6.17074)">
   <path id="svg_24" fill="#7f007f" d="m72.875427,1584.480713c33.33197,-87.5 -209.828003,-99.629883 -218.751099,31.25c-6.25,91.666992 -37.498901,137.5 27.083984,189.583984c62.975098,50.787109 189.58313,31.248047 202.08313,-52.083984c12.5,-83.333984 -14.582031,-62.499023 -25,-93.749023c-10.416016,-31.250977 14.583984,-75.000977 14.583984,-75.000977z"/>
   <path id="svg_25" fill="#7f007f" d="m220.074402,1627.121826c68.444031,-26.489014 29.778015,-85.730957 -42.279968,-48.951904c-51.298035,26.182861 -68.175049,57.36792 -76.27002,71.496826c-30.690002,53.563965 31.260986,101.931152 46.273987,54.191162c16.976013,-53.976074 72.276001,-76.736084 72.276001,-76.736084z"/>
   <path id="svg_26" fill="#7f007f" d="m139.540405,1394.898926c30.15802,-55.098145 -21.927002,-82.182129 -52.083984,-27.083984c-30.15802,55.0979 -32.825012,45.941895 -48.221985,98.249756c-15.397034,52.308105 24.29895,60.091064 47.657959,15.688232c23.359009,-44.403076 52.64801,-86.854004 52.64801,-86.854004z"/>
   <path id="svg_27" fill="#7f007f" d="m23.549438,1338.498779c18.072998,-60.265869 -52.679016,-81.577881 -60.413025,2.178955c-6.930054,75.055176 -5.619019,41.85498 -0.973999,104.495117c4.460022,60.144043 58.627014,85.144043 53.88501,-5.89502c-4.276001,-82.094971 7.502014,-100.779053 7.502014,-100.779053z"/>
   <path id="svg_28" fill="#7f007f" d="m-93.79364,1359.481934c-11.110962,-65.158203 -69.447998,-38.68811 -51.916016,16.202881c17.531982,54.891113 12.151978,55.39502 41.098999,107.141113c25.400024,45.405762 71.233093,39.155762 43.763062,-24.890137c-24.31897,-56.699951 -32.946045,-98.453857 -32.946045,-98.453857z"/>
   <path id="svg_29" fill="#7f007f" d="m-168.79364,1421.98291c-18.75,-43.75 -62.5,-20.833008 -39.291992,30.425781c19.613037,43.320068 30.08606,44.940186 54.561035,70.625c34.730957,36.449219 59.730957,3.116211 30.986938,-29.73877c-37.442017,-42.796143 -46.255981,-71.312012 -46.255981,-71.312012z"/>
  </g>
  <g id="svg_30" transform="rotate(-161.829, 84.54, 282.917) matrix(-0.296256, 0, 0, 0.260862, 150.628, 6.17074)">
   <path id="svg_31" fill="#ffff00" d="m275.402893,1086.133057c33.332031,-87.500061 -209.827957,-99.630066 -218.751057,31.25c-6.25,91.666992 -37.498901,137.5 27.08411,189.583984c62.974976,50.787109 189.582962,31.248047 202.082962,-52.083984c12.5,-83.333984 -14.58197,-62.499023 -25,-93.749023c-10.416031,-31.250977 14.583984,-75.000977 14.583984,-75.000977z"/>
   <path id="svg_32" fill="#ffff00" d="m422.601929,1128.774048c68.44397,-26.489014 29.777954,-85.730957 -42.280029,-48.951904c-51.297974,26.182983 -68.174988,57.36792 -76.269958,71.496948c-30.690002,53.563965 31.260986,101.93103 46.273987,54.19104c16.976013,-53.976074 72.276001,-76.736084 72.276001,-76.736084z"/>
   <path id="svg_33" fill="#ffff00" d="m342.067932,896.550964c30.157959,-55.098022 -21.927002,-82.182007 -52.084045,-27.083984c-30.157959,55.098022 -32.824951,45.942017 -48.221939,98.25c-15.397095,52.307983 24.298965,60.091125 47.657974,15.687988c23.359009,-44.402954 52.64801,-86.854004 52.64801,-86.854004z"/>
   <path id="svg_34" fill="#ffff00" d="m226.076889,840.151062c18.072998,-60.266113 -52.678955,-81.578003 -60.412964,2.178955c-6.930054,75.054932 -5.619019,41.85498 -0.973999,104.494995c4.459961,60.144043 58.626953,85.144104 53.88501,-5.89502c-4.276001,-82.094971 7.501953,-100.778931 7.501953,-100.778931z"/>
   <path id="svg_35" fill="#ffff00" d="m108.733871,861.133972c-11.110962,-65.157959 -69.448002,-38.687988 -51.916019,16.203003c17.531986,54.890991 12.151981,55.39502 41.099003,107.140991c25.400024,45.406067 71.233032,39.156006 43.763062,-24.889893c-24.31897,-56.700073 -32.946045,-98.454102 -32.946045,-98.454102z"/>
   <path id="svg_36" fill="#ffff00" d="m33.733868,923.634949c-18.75,-43.75 -62.500057,-20.832886 -39.291992,30.426025c19.613037,43.320068 30.08606,44.940063 54.561035,70.625061c34.730961,36.449097 59.730961,3.116089 30.986942,-29.739075c-37.44202,-42.795898 -46.255985,-71.312012 -46.255985,-71.312012z"/>
  </g>
  <g id="svg_37" transform="rotate(91.5234, 291.542, 447.917) matrix(-0.296256, 0, 0, 0.260862, 150.628, 6.17074)">
   <path id="svg_38" fill="#3f7f00" d="m-423.317078,1718.651245c33.33197,-87.5 -209.828064,-99.629883 -218.75116,31.25c-6.25,91.666992 -37.498901,137.5 27.084106,189.583984c62.974976,50.787109 189.583069,31.248047 202.083069,-52.083984c12.5,-83.333984 -14.582031,-62.499023 -25,-93.749023c-10.416016,-31.250977 14.583984,-75.000977 14.583984,-75.000977z"/>
   <path id="svg_39" fill="#3f7f00" d="m-276.118103,1761.292358c68.443954,-26.489014 29.777939,-85.730957 -42.279999,-48.951904c-51.298004,26.182861 -68.175018,57.36792 -76.269989,71.496826c-30.690002,53.563965 31.260986,101.931152 46.273987,54.191162c16.976013,-53.976074 72.276001,-76.736084 72.276001,-76.736084z"/>
   <path id="svg_40" fill="#3f7f00" d="m-356.6521,1529.069458c30.15799,-55.098145 -21.927002,-82.182129 -52.084045,-27.083984c-30.157959,55.0979 -32.824951,45.941895 -48.221924,98.249756c-15.397064,52.308105 24.29895,60.091064 47.657959,15.688232c23.359009,-44.403076 52.64801,-86.854004 52.64801,-86.854004z"/>
   <path id="svg_41" fill="#3f7f00" d="m-472.643158,1472.669312c18.07309,-60.265869 -52.678986,-81.577881 -60.412994,2.178955c-6.929993,75.055176 -5.619019,41.85498 -0.973999,104.495117c4.460022,60.144043 58.627045,85.144043 53.88504,-5.89502c-4.276001,-82.094971 7.501953,-100.779053 7.501953,-100.779053z"/>
   <path id="svg_42" fill="#3f7f00" d="m-589.986145,1493.652466c-11.111023,-65.158203 -69.448059,-38.688232 -51.916077,16.202881c17.531982,54.891113 12.151978,55.39502 41.09906,107.141113c25.400024,45.405762 71.233032,39.155762 43.763,-24.890137c-24.31897,-56.699951 -32.945984,-98.453857 -32.945984,-98.453857z"/>
   <path id="svg_43" fill="#3f7f00" d="m-664.986206,1556.153442c-18.75,-43.75 -62.5,-20.833008 -39.291992,30.425781c19.613037,43.320068 30.08606,44.940186 54.561035,70.625c34.731018,36.449219 59.731018,3.116211 30.986938,-29.73877c-37.442017,-42.796143 -46.255981,-71.312012 -46.255981,-71.312012z"/>
  </g>
 </g>
</svg>